<?xml version="1.0" standalone="no"?>
<!DOCTYPE svg PUBLIC "-//W3C//DTD SVG 20010904//EN"
 "http://www.w3.org/TR/2001/REC-SVG-20010904/DTD/svg10.dtd">
<svg version="1.0" xmlns="http://www.w3.org/2000/svg"
 width="260.000000pt" height="260.000000pt" viewBox="0 0 260.000000 260.000000"
 preserveAspectRatio="xMidYMid meet">
<metadata>
Created by potrace 1.14, written by Peter Selinger 2001-2017
</metadata>
<g transform="translate(0.000000,260.000000) scale(0.100000,-0.100000)"
fill="#000000" stroke="none">
<path d="M1100 2584 c-219 -34 -444 -128 -595 -251 -129 -104 -283 -290 -359
-433 -46 -88 -110 -264 -120 -335 -4 -22 -10 -62 -14 -90 -9 -61 -9 -313 0
-375 29 -195 88 -348 204 -522 194 -292 518 -499 879 -562 110 -19 385 -14
465 9 8 2 30 7 48 10 53 9 150 44 248 90 259 121 479 337 609 600 53 106 97
236 110 326 4 24 11 69 15 99 15 103 5 347 -19 440 -94 371 -327 679 -653 864
-95 54 -237 101 -393 131 -70 14 -333 13 -425 -1z m85 -84 c-13 -36 -13 -46 0
-76 8 -19 22 -37 32 -41 10 -4 25 -16 34 -26 22 -28 55 -14 79 33 24 47 28 50
87 56 26 2 49 7 52 10 3 3 5 22 6 42 0 39 1 40 70 27 51 -9 196 -57 254 -83
60 -27 63 -30 43 -41 -27 -14 -39 -56 -21 -77 11 -13 8 -19 -14 -38 -41 -35
-44 -70 -12 -116 45 -66 102 -112 133 -108 23 3 30 11 45 58 22 66 40 82 85
75 45 -7 70 -21 117 -66 21 -21 51 -41 67 -44 18 -4 38 -22 58 -53 l31 -47
-32 -3 c-50 -5 -72 5 -101 48 -35 51 -66 59 -126 32 -26 -11 -60 -24 -76 -27
-40 -9 -52 -28 -55 -88 -2 -46 -26 -107 -41 -107 -3 0 -22 -15 -42 -33 -35
-32 -36 -35 -32 -92 11 -151 21 -173 97 -218 45 -27 55 -41 83 -122 37 -108
89 -117 195 -34 20 16 44 29 53 29 18 0 70 -67 97 -125 23 -52 28 -91 17 -140
-5 -22 -11 -78 -13 -123 -4 -92 -11 -106 -86 -158 -50 -34 -70 -90 -45 -125
23 -34 20 -58 -18 -132 -24 -46 -34 -76 -31 -99 3 -30 -2 -38 -61 -88 -209
-178 -440 -284 -669 -307 -336 -34 -641 45 -885 228 -319 239 -493 585 -494
984 -1 146 13 298 29 313 10 10 98 -44 161 -99 38 -33 82 -67 98 -75 l28 -16
-7 49 c-4 26 -9 100 -10 163 l-2 115 -31 3 c-18 2 -32 9 -32 15 0 13 35 73 53
92 35 34 101 74 111 66 22 -17 60 -20 85 -6 15 7 51 47 80 89 43 61 64 81 105
100 28 14 75 45 104 70 30 25 61 46 70 47 9 1 52 2 94 4 115 3 131 26 78 107
-59 89 -111 101 -191 43 -45 -32 -60 -39 -85 -36 -18 2 -25 28 -14 55 10 27
41 39 147 56 74 12 117 35 128 70 7 21 19 25 87 28 l47 3 -14 -41z"/>
<path d="M546 1511 c-10 -10 -38 -24 -64 -31 -58 -14 -65 -25 -46 -68 19 -47
18 -85 -5 -113 -57 -74 -59 -122 -7 -235 19 -40 39 -96 45 -125 22 -104 44
-127 128 -144 39 -8 45 -21 48 -113 4 -102 12 -137 49 -217 18 -38 43 -97 57
-130 45 -111 162 -197 207 -152 15 16 20 67 13 147 -7 85 -4 96 40 115 52 24
83 61 105 127 32 97 51 113 134 110 25 -1 53 4 62 11 25 20 45 72 59 153 14
84 29 115 66 139 107 70 51 128 -181 190 -132 35 -149 45 -174 103 -27 61 -36
69 -94 76 -68 9 -90 21 -128 78 -41 60 -59 68 -149 68 -44 0 -74 5 -87 15 -26
20 -58 19 -78 -4z"/>
</g>
</svg>
