<?xml version="1.0" standalone="no"?>
<!DOCTYPE svg PUBLIC "-//W3C//DTD SVG 20010904//EN"
 "http://www.w3.org/TR/2001/REC-SVG-20010904/DTD/svg10.dtd">
<svg version="1.0" xmlns="http://www.w3.org/2000/svg"
 width="130.000000pt" height="130.000000pt" viewBox="0 0 130.000000 130.000000"
 preserveAspectRatio="xMidYMid meet">
<metadata>
Created by potrace 1.14, written by Peter Selinger 2001-2017
</metadata>
<g transform="translate(0.000000,130.000000) scale(0.100000,-0.100000)"
fill="#000000" stroke="none">
<path d="M535 1290 c-138 -27 -237 -78 -332 -170 -74 -72 -136 -169 -170 -266
-24 -71 -27 -93 -27 -209 0 -115 3 -139 26 -203 74 -205 231 -353 443 -418 91
-27 268 -25 363 4 227 71 392 250 447 484 19 83 14 254 -10 323 -100 289 -328
461 -610 462 -49 0 -108 -3 -130 -7z m57 -53 c-3 -28 1 -37 24 -52 27 -18 28
-18 48 8 12 14 32 27 46 29 17 2 26 10 28 26 4 27 0 27 81 2 67 -21 126 -49
104 -50 -8 0 -13 -13 -13 -29 0 -16 -6 -34 -14 -41 -19 -15 -10 -37 26 -72 37
-37 54 -35 68 7 10 30 15 34 37 31 14 -3 36 -13 50 -23 14 -10 33 -22 42 -28
19 -12 40 -37 41 -47 0 -17 -36 -6 -61 18 -26 25 -29 25 -66 13 -53 -18 -63
-27 -63 -60 0 -19 -10 -38 -30 -55 -27 -25 -29 -31 -25 -78 4 -42 11 -56 39
-81 19 -16 41 -47 50 -68 20 -50 38 -55 86 -23 l39 26 28 -36 c27 -37 28 -43
23 -156 -1 -38 -7 -52 -29 -71 -40 -33 -51 -56 -39 -82 7 -16 6 -30 -6 -53 -9
-17 -16 -41 -16 -54 -1 -24 -62 -78 -149 -131 -146 -88 -384 -97 -548 -22
-234 107 -368 328 -359 596 1 52 6 101 10 107 9 15 46 -4 95 -48 18 -16 37
-30 41 -30 4 0 6 33 4 73 -2 39 -4 75 -4 80 0 4 -7 7 -15 7 -24 0 -17 20 19
55 27 25 40 31 64 27 27 -3 35 1 59 35 34 48 137 117 178 120 17 1 38 2 48 2
24 1 22 40 -5 68 -26 28 -57 29 -90 4 -27 -22 -52 -14 -42 12 3 9 9 17 13 18
3 0 13 2 21 4 8 1 30 5 49 8 18 3 42 15 52 26 11 12 30 21 42 21 20 0 22 -4
19 -33z"/>
<path d="M274 755 c-10 -8 -27 -15 -36 -15 -24 0 -31 -16 -18 -40 9 -17 7 -28
-9 -56 -26 -43 -26 -55 -2 -105 11 -22 23 -54 26 -72 9 -39 32 -67 57 -67 22
0 25 -8 31 -76 5 -56 63 -190 93 -215 51 -43 80 -24 71 46 -6 43 8 75 34 75 5
0 21 25 35 55 24 49 30 55 58 55 49 0 61 15 72 89 3 20 18 49 35 66 27 29 28
32 11 48 -9 10 -54 29 -99 43 -71 22 -83 28 -91 54 -8 22 -19 30 -46 35 -21 4
-47 20 -66 41 -26 29 -37 34 -73 34 -24 0 -48 5 -53 10 -7 7 -17 5 -30 -5z"/>
</g>
</svg>
