<?xml version="1.0" encoding="UTF-8" standalone="no"?>
<svg
   width="34.709mm"
   height="34.709mm"
   viewBox="0 0 34.709 34.708999"
   version="1.1"
   id="svg5"
   sodipodi:docname="logo_small.svg"
   inkscape:export-filename="logo.png"
   inkscape:export-xdpi="192"
   inkscape:export-ydpi="192"
   inkscape:version="1.2.2 (b0a8486541, 2022-12-01)"
   xmlns:inkscape="http://www.inkscape.org/namespaces/inkscape"
   xmlns:sodipodi="http://sodipodi.sourceforge.net/DTD/sodipodi-0.dtd"
   xmlns="http://www.w3.org/2000/svg"
   xmlns:svg="http://www.w3.org/2000/svg">
  <sodipodi:namedview
     id="namedview52"
     pagecolor="#ffffff"
     bordercolor="#999999"
     borderopacity="1"
     inkscape:showpageshadow="0"
     inkscape:pageopacity="0"
     inkscape:pagecheckerboard="0"
     inkscape:deskcolor="#d1d1d1"
     inkscape:document-units="mm"
     showgrid="false"
     inkscape:zoom="3.7031226"
     inkscape:cx="64.675148"
     inkscape:cy="65.620296"
     inkscape:window-width="1920"
     inkscape:window-height="1011"
     inkscape:window-x="0"
     inkscape:window-y="0"
     inkscape:window-maximized="1"
     inkscape:current-layer="layer1" />
  <defs
     id="defs2" />
  <g
     id="layer1"
     transform="translate(-4.939005,-86.015829)">
    <g
       id="SvgjsG1216"
       featurekey="HdFLvg-0"
       transform="matrix(0.38217422,0,0,0.38217422,3.191817,84.239504)"
       fill="#155263"
       style="fill:#ffcc00;fill-opacity:1">
      <path
         d="m 50.56,54.841 c -2.605,-0.754 -6.088,-1.183 -7.338,-2.549 -1.068,-1.165 -0.633,-2.223 -1.834,-3.639 -1.825,-0.969 -2.81,-0.167 -4.402,-0.912 -2.19,-1.019 -2.476,-4.027 -4.586,-4.551 -2.042,-0.508 -5.068,0.777 -6.42,-1.092 -0.064,-0.226 -1.057,0.149 -1.651,0 -0.481,1.828 -3.34,1.296 -4.586,2.368 -0.356,1.44 1.097,2.165 0.917,4.003 -0.154,1.58 -2.176,2.849 -2.385,4.733 -0.233,2.104 1.172,4.482 2.201,6.556 0.864,1.738 0.919,5.252 2.201,6.552 1.513,1.537 2.887,0.421 4.036,1.638 1.016,1.078 0.471,3.858 0.734,6.19 0.229,2.032 1.139,3.989 2.201,6.192 1.035,2.141 1.926,4.684 2.752,5.824 0.585,0.812 3.423,3.402 5.136,2.913 2.744,-0.781 0.053,-6.905 1.284,-8.92 1.651,-0.982 2.612,-0.978 3.669,-2.365 1.376,-1.804 1.203,-5.705 3.852,-6.373 0.897,-0.226 2.205,0.313 3.302,0 3.1,-0.883 2.192,-6.194 3.669,-9.101 0.679,-1.336 3.445,-2.072 3.302,-3.825 -0.136,-1.654 -4.016,-3.052 -6.054,-3.642 z"
         id="path10"
         style="fill:#ffcc00;fill-opacity:1" />
      <path
         d="M 94.951,46.831 C 94.68,40.071 92.555,34.299 89.998,29.354 82.857,15.549 68.45,3.547 46.708,5.143 39.965,5.636 33.93,7.451 28.915,10.057 23.772,12.729 19.787,16.274 16.442,20.07 9.485,27.963 4.342,38.187 5.068,53.202 c 0.631,13.064 6.993,23.277 14.675,30.22 7.798,7.047 19.807,12.416 33.568,11.469 13.286,-0.914 23.148,-7.094 30.083,-14.746 7.312,-8.062 12.15,-18.596 11.557,-33.314 z m -8.621,16.93 c -0.938,2.226 -4.872,2.833 -4.769,6.008 0.031,0.948 1.068,1.791 1.101,2.549 0.09,2.023 -3.241,3.927 -2.201,7.464 C 72.478,87.235 62.864,93.703 46.709,92.707 21.433,91.151 2.284,67.804 8.187,39.549 c 4.439,1.178 6.209,5.005 10.089,6.736 -0.35,-2.906 -1.495,-6.913 -0.367,-11.105 -0.316,-0.481 -2.025,-0.532 -2.568,-0.18 0.172,-2.988 2.94,-4.972 5.32,-6.374 4.45,3.058 5.49,-3.295 8.438,-5.46 0.754,-0.557 1.977,-0.892 2.935,-1.458 1.77,-1.047 2.797,-2.723 3.852,-3.095 2.683,-0.943 7.165,0.837 7.521,-1.821 0.191,-1.422 -2.779,-4.677 -4.036,-4.915 -3.166,-0.599 -4.298,3.088 -6.787,2.549 -0.765,-0.191 -0.286,-2.03 -0.184,-2.549 2.544,-1.975 9.605,-0.406 9.539,-4.369 1.306,-0.246 3.162,-0.832 4.586,-0.364 -1.029,2.185 -1.526,3.494 0.367,5.279 0.171,0.16 0.574,0.011 0.734,0.182 0.457,0.488 0.374,1.154 1.284,1.274 2.221,0.291 1.805,-2.252 3.302,-3.277 0.985,-0.419 2.871,0.058 3.669,-0.546 0.572,-0.759 -0.207,-2.332 0.183,-2.913 5.18,0.807 9.531,2.436 13.574,4.369 -1.827,0.197 -2.715,2.465 -1.101,3.641 -3.3,1.857 -2.575,4.114 0,6.372 1.034,0.907 1.996,2.594 3.485,2.185 1.822,-0.5 0.802,-4.162 2.935,-4.733 4.745,-0.583 4.613,3.674 8.438,4.005 0.726,1.222 1.926,1.973 2.201,3.643 -0.505,0.093 -1.981,-0.462 -2.935,0 -1.352,-1.191 -1.917,-3.443 -3.852,-3.643 -1.177,-0.12 -1.724,0.706 -2.751,1.093 -0.917,0.346 -2.216,0.211 -2.935,0.73 -1.376,0.988 -0.633,2.987 -1.1,4.731 -0.629,2.341 -3.582,2.583 -3.852,4.369 0.244,2.672 -0.169,5.247 1.1,7.464 0.831,1.451 2.957,1.857 3.852,2.913 1.281,1.513 1.268,5.272 2.935,6.008 3.003,1.329 4.668,-2.252 7.154,-2.913 1.638,1.821 3.861,4.418 4.036,7.464 0.068,1.181 -0.596,2.774 -0.734,4.551 -0.117,1.493 0.284,3.257 -0.184,4.369 z"
         id="path12"
         style="fill:#ffcc00;fill-opacity:1" />
    </g>
  </g>
</svg>
